# xmcd CD database file
#
# Track frame offsets:
#	150
#	16100
#	29630
#	43785
#	56254
#	71338
#	85274
#	96473
#	111258
#	125606
#	137910
#	149609
#	168174
#	179341
#	191771
#	202763
#
# Disc length: 2907 seconds
#
# Revision: 0
# Processed by: cddbd v1.5.2PL0 Copyright (c) Steve Scherf et al.
# Submitted via: CDex 1.70beta2
#
DISCID=e50b5910
DTITLE=Gordon, J.D. - Cdn. - On My Way
DYEAR=1900
DGENRE=Country
TTITLE0=It's all over now
TTITLE1=Grandpa was a good ole soul
TTITLE2=How many Days
TTITLE3=Thinking with my Heart
TTITLE4=Thats what I get for Loving you
TTITLE5=Hey Mister
TTITLE6=Fell asleep in thunder bay
TTITLE7=Daddy's Little Cowgirl's got the Blues
TTITLE8=Shit Happens
TTITLE9=Tired of Doing
TTITLE10=The K and P Trail
TTITLE11=Ballad of Tommy Prince
TTITLE12=I think I'm In Love with You
TTITLE13=If I had a Nickel
TTITLE14=On My way Back Home
TTITLE15=They cut my kid
EXTD=
EXTT0=
EXTT1=
EXTT2=
EXTT3=
EXTT4=
EXTT5=
EXTT6=
EXTT7=
EXTT8=
EXTT9=
EXTT10=
EXTT11=
EXTT12=
EXTT13=
EXTT14=
EXTT15=
PLAYORDER=
